<?xml version="1.0" encoding="utf-8"?>
<!-- Generator: Adobe Illustrator 22.0.0, SVG Export Plug-In . SVG Version: 6.00 Build 0)  -->
<svg version="1.1" id="Слой_1" xmlns="http://www.w3.org/2000/svg" x="0px" y="0px"
	 viewBox="0 0 37.8 69.4" style="enable-background:new 0 0 37.8 69.4;" xml:space="preserve">
<style type="text/css">
	.st0{fill:#FFFFFF;}
</style>     
<g class="st0">
	<path d="M18.9,14.6c4.3,0,7.7-3.9,7.7-8.2V4.8c0-2.6-2.1-4.7-4.7-4.7L18.9,0l-3.1,0.1c-2.6,0-4.7,2.1-4.7,4.7v1.6
		C11.2,10.7,14.7,14.6,18.9,14.6z M13.2,6c-0.1-0.5,0.3-1,0.8-1.2l3.6-1c0.9-0.2,1.8-0.2,2.7,0l3.6,1C24.4,5,24.7,5.5,24.7,6
		l-0.2,2.2c-0.1,0.6-0.5,1-1.1,1h-8.9c-0.6,0-1-0.4-1.1-1L13.2,6z"/>
	<path d="M25.4,18.4l2.5,6.4c0.1,0.3,0.5,0.4,0.7,0.3l2.4-1.3c0.3-0.2,0.6-0.5,0.7-0.8l0.9-2.1c0.2-0.5,0.2-1.1-0.1-1.5
		c-0.3-0.4-0.6-0.9-1.1-1.3c-1.6-1.5-4.6-0.6-5.7-0.2C25.4,17.8,25.3,18.1,25.4,18.4z"/>
	<path d="M33.4,37.3c0.2-0.3,0.6-0.5,1-0.8c0.7-0.4,1.4-0.4,1.9-0.3c0.4,0.1,0.7-0.3,0.6-0.7l-2.9-8.5c0,0,0-0.1,0-0.1l-0.6-3.3
		l0,0.1c-0.3,0.7-0.8,1.3-1.5,1.7l-2.4,1.3c-0.3,0.2-0.7,0.3-1.1,0.3c-0.2,0-0.4,0-0.6-0.1c0,0-0.1,0-0.1,0
		c-0.6-0.2-1.1-0.7-1.4-1.3L23.8,19c-0.2-0.6-0.2-1.2,0-1.8c0-0.1,0.1-0.2,0.1-0.2c-0.4-0.7-1.2-1.1-2-0.8l-0.3,0.1
		c-0.1,0-0.3,0.1-0.4,0.1l-2.3,0l-2.7-0.1c-0.1,0-0.3,0-0.4-0.1c-0.8-0.3-1.6,0.1-2,0.8c0.1,0.1,0.1,0.1,0.1,0.2
		c0.2,0.6,0.3,1.2,0,1.8l-2.5,6.4c-0.3,0.6-0.8,1.1-1.4,1.3c0,0-0.1,0-0.1,0c-0.2,0.1-0.4,0.1-0.6,0.1c-0.4,0-0.8-0.1-1.1-0.3
		l-2.4-1.3c-0.7-0.4-1.2-1-1.5-1.7l0-0.1l-0.6,3.3c0,0,0,0,0,0.1l-2.9,8.5c-0.1,0.4,0.2,0.8,0.6,0.7C2,36,2.7,36,3.4,36.4
		c0.5,0.3,0.8,0.6,1,0.8c0.3,0.3,0.7,0.2,0.9-0.1l4.3-9.2c-0.1,0.2-0.1,0.5,0,0.7l1.5,12c0.1,0.4,0.4,0.7,0.8,0.7h14
		c0.4,0,0.8-0.3,0.8-0.7l1.5-12c0.1-0.3,0-0.6-0.1-0.8l4.4,9.4C32.7,37.5,33.2,37.5,33.4,37.3z"/>
	<path d="M37.6,39c0.1-0.6-0.3-1.1-0.8-1.2l-1.9-0.3c-0.4-0.1-0.8,0.1-1,0.5l-0.7,1c-0.3,0.4-0.4,0.9-0.2,1.4l0.4,1.5
		c0,0.2,0.2,0.3,0.4,0.2l0.5-0.2c0.1,0,0.2-0.2,0.2-0.3L34.1,40c0-0.1,0.1-0.2,0.2-0.3c0.2-0.1,0.3,0,0.4,0.2l0.8,2.8
		c0,0.1,0,0.2,0,0.2l-1.2,1.8c-0.2,0.3-0.1,0.7,0.2,0.9l0.2,0.1c0.3,0.2,0.7,0.1,0.9-0.2l1.7-2.6c0,0,0,0,0,0l0.6-1.2
		c0.1-0.3,0.2-0.6,0.1-0.9L37.6,39z"/>
	<path d="M6,22.9c0.1,0.4,0.4,0.6,0.7,0.8l2.4,1.3c0.3,0.2,0.6,0,0.7-0.3l2.5-6.4c0.1-0.3,0-0.6-0.3-0.7C11,17.3,8,16.4,6.4,17.9
		c-0.5,0.5-0.9,0.9-1.1,1.3c-0.3,0.5-0.3,1-0.1,1.5L6,22.9z"/>
	<path d="M4.1,37.9c-0.2-0.3-0.6-0.5-1-0.5l-1.9,0.3c-0.6,0.1-0.9,0.6-0.8,1.2L0,40.9c0,0.3,0,0.6,0.1,0.9l0.6,1.2c0,0,0,0,0,0
		l1.7,2.6c0.2,0.3,0.6,0.4,0.9,0.2l0.2-0.1c0.3-0.2,0.4-0.6,0.2-0.9l-1.2-1.8c0-0.1-0.1-0.2,0-0.2l0.8-2.8c0-0.2,0.2-0.3,0.4-0.2
		c0.1,0.1,0.2,0.2,0.2,0.3l-0.2,1.6c0,0.1,0.1,0.3,0.2,0.3L4.2,42c0.2,0.1,0.3,0,0.4-0.2L5,40.3c0.1-0.5,0-1-0.2-1.4L4.1,37.9z"/>
	<path d="M27.9,42.8H27c0.1,0.3,0.2,0.5,0.2,0.8c0,0.6-0.5,1.4-2.7,1.4c-0.1,0-0.2,0-0.3,0c-1,0-2.9-0.2-2.9-1.3
		c0-0.3,0-0.6,0.2-0.9h-0.9c-0.4,0-0.8,0.2-1.1,0.5c-0.2,0.2-0.3,0.5-0.3,0.9l1,12.4c0,0.1,0,0.2,0,0.3l-0.3,8L19.8,67
		c0,0.5,0.2,0.9,0.6,1.2l1.2,0.8c0.3,0.2,0.7,0.3,1,0.3h3.2c0.5,0,1-0.2,1.3-0.5l0.7-0.7c0.3-0.3,0.5-0.8,0.4-1.2l-0.5-2l1.8-7.5
		c0.1-0.3,0.1-0.5,0.1-0.8c0,0,0-0.1,0-0.1c0,0,0,0,0,0c0-0.1,0-0.2,0-0.4L29.3,44C29.3,43.3,28.7,42.8,27.9,42.8z M26.4,64.8
		c0,0.8-0.7,1.5-1.5,1.5h-1.7c-0.8,0-1.5-0.7-1.5-1.5v-0.1c0-0.8,0.7-1.5,1.5-1.5h1.7c0.8,0,1.5,0.7,1.5,1.5V64.8z"/>
	<path d="M18.8,44.1c0-0.3-0.1-0.6-0.3-0.9c-0.3-0.3-0.7-0.5-1.1-0.5h-0.9c0.1,0.3,0.2,0.6,0.2,0.9c-0.1,1.1-1.9,1.3-2.9,1.3
		c-0.1,0-0.2,0-0.3,0c-2.2-0.1-2.7-0.8-2.7-1.4c0-0.3,0.1-0.5,0.2-0.8H10c-0.8,0-1.4,0.5-1.4,1.2L8.2,56.1c0,0.1,0,0.2,0,0.4
		c0,0,0,0,0,0c0,0,0,0.1,0,0.1c0,0.3,0.1,0.5,0.1,0.8l1.8,7.5l-0.5,2c-0.1,0.4,0,0.9,0.4,1.2l0.7,0.7c0.3,0.3,0.8,0.5,1.3,0.5h3.2
		c0.4,0,0.8-0.1,1-0.3l1.2-0.8c0.4-0.3,0.7-0.7,0.6-1.2L18,64.8l-0.3-8c0-0.1,0-0.2,0-0.3L18.8,44.1z M16.2,64.8
		c0,0.8-0.7,1.5-1.5,1.5H13c-0.8,0-1.5-0.7-1.5-1.5v-0.1c0-0.8,0.7-1.5,1.5-1.5h1.7c0.8,0,1.5,0.7,1.5,1.5V64.8z"/>
</g>
</svg>
