<?xml version="1.0" encoding="utf-8"?>
<!-- Generator: Adobe Illustrator 22.0.0, SVG Export Plug-In . SVG Version: 6.00 Build 0)  -->
<svg version="1.1" id="Слой_1" xmlns="http://www.w3.org/2000/svg" x="0px" y="0px"
     viewBox="0 0 397.1 78.7" style="enable-background:new 0 0 397.1 78.7;" xml:space="preserve">
<style type="text/css">
	.st0{fill:#575756;}
	.st1{fill:#A82028;}
</style>
<g>
	<path class="st0" d="M35.7,66.8H13.2c-0.6,0-1-0.4-1-1V25.4c0-0.5-0.5-1-1-1H1c-0.6,0-1,0.4-1,1v52c0,0.5,0.5,1,1,1h34.6
		c0.6,0,1-0.4,1-1v-9.6C36.7,67.2,36.2,66.8,35.7,66.8z"/>
	<path class="st0" d="M127.5,24.4h-10.2c-0.6,0-1,0.4-1,1v28.2c0,1-1.4,1.3-1.9,0.5L96.2,24.9c-0.2-0.3-0.5-0.5-0.9-0.5H84.7
		c-0.6,0-1,0.4-1,1v52c0,0.5,0.5,1,1,1h10.2c0.6,0,1-0.4,1-1V49.1c0-1,1.4-1.3,1.9-0.5L116,77.9c0.2,0.3,0.5,0.5,0.9,0.5h10.6
		c0.6,0,1-0.4,1-1v-52C128.6,24.8,128.1,24.4,127.5,24.4z"/>
	<path class="st0" d="M239.1,24.4h-22.4c-9.6,0-17.3,7.3-17.3,16.4c0,9,7.8,16.4,17.3,16.4h6.1c2.8,0,5.1,2.2,5.1,4.8v0
		c0,2.7-2.3,4.8-5.1,4.8h-22.4c-0.6,0-1,0.4-1,1v9.6c0,0.5,0.5,1,1,1h22.4c9.6,0,17.3-7.3,17.3-16.4v0c0-9-7.8-16.4-17.3-16.4h-6.1
		c-2.8,0-5.1-2.2-5.1-4.8c0-2.7,2.3-4.8,5.1-4.8h22.4c0.6,0,1-0.4,1-1v-9.6C240.1,24.8,239.6,24.4,239.1,24.4z"/>
	<path class="st0" d="M346.5,24.4h-34.6c-0.6,0-1,0.4-1,1v52c0,0.5,0.5,1,1,1h10.2c0.6,0,1-0.4,1-1V58.1c0-0.5,0.5-1,1-1h22.4
		c0.6,0,1-0.4,1-1v-9.6c0-0.5-0.5-1-1-1h-22.4c-0.6,0-1-0.4-1-1v-4.7c0-2.2,1.9-4,4.2-4h19.2c0.6,0,1-0.4,1-1v-9.6
		C347.6,24.8,347.1,24.4,346.5,24.4z"/>
	<path class="st0" d="M396.1,24.4h-38.7c-0.6,0-1,0.4-1,1V35c0,0.5,0.5,1,1,1h12.2c0.6,0,1,0.4,1,1v40.5c0,0.5,0.5,1,1,1h10.2
		c0.6,0,1-0.4,1-1V36.9c0-0.5,0.5-1,1-1h12.2c0.6,0,1-0.4,1-1v-9.6C397.1,24.8,396.7,24.4,396.1,24.4z"/>
	<path class="st0" d="M164.7,24c-15.1,0-27.4,12.3-27.4,27.4c0,15.1,12.3,27.4,27.4,27.4c15.1,0,27.4-12.3,27.4-27.4
		C192.1,36.3,179.8,24,164.7,24z M164.7,66.3c-8.2,0-14.9-6.7-14.9-14.9c0-8.2,6.7-14.9,14.9-14.9c8.2,0,14.9,6.7,14.9,14.9
		C179.6,59.6,173,66.3,164.7,66.3z"/>
	<path class="st0" d="M274.2,24c-15.1,0-27.4,12.3-27.4,27.4c0,15.1,12.3,27.4,27.4,27.4c15.1,0,27.4-12.3,27.4-27.4
		C301.6,36.3,289.3,24,274.2,24z M274.2,66.3c-8.2,0-14.9-6.7-14.9-14.9c0-8.2,6.7-14.9,14.9-14.9c8.2,0,14.9,6.7,14.9,14.9
		C289.1,59.6,282.4,66.3,274.2,66.3z"/>
</g>
<g>
	<path class="st0" d="M57,22.8c4.7,0,8.5-4.3,8.5-9v-1.7c0-2.8-2.3-5.2-5.1-5.2L57,6.8l-3.4,0.1c-2.8,0-5.1,2.3-5.1,5.2v1.7
		C48.5,18.5,52.3,22.8,57,22.8z M50.7,13.4c-0.1-0.6,0.3-1.1,0.9-1.3l3.9-1.1c1-0.3,2-0.3,3,0l3.9,1.1c0.6,0.2,0.9,0.7,0.9,1.3
		l-0.2,2.4c-0.1,0.6-0.6,1.1-1.2,1.1h-9.8c-0.6,0-1.1-0.5-1.2-1.1L50.7,13.4z"/>
	<path class="st0" d="M63.7,26.8l2.6,6.6c0.1,0.3,0.5,0.4,0.8,0.3l2.5-1.4c0.3-0.2,0.6-0.5,0.8-0.9l0.9-2.2c0.2-0.5,0.2-1.1-0.1-1.6
		c-0.3-0.4-0.6-0.9-1.2-1.4c-1.7-1.5-4.7-0.6-5.9-0.2C63.7,26.2,63.6,26.5,63.7,26.8z"/>
	<path class="st0" d="M71.9,46.2c0.2-0.3,0.6-0.6,1.1-0.9c0.7-0.4,1.4-0.4,2-0.3c0.4,0.1,0.8-0.3,0.6-0.7l-3-8.7c0,0,0-0.1,0-0.1
		l-0.9-5l-0.5,1.3c-0.2,0.6-0.7,1.1-1.2,1.4l-2.5,1.4c-0.2,0.1-0.5,0.2-0.7,0.2c-0.5,0-0.9-0.2-1.2-0.6l-3.4-8.6
		c-0.3-0.8-1.2-1.3-2.1-1l-0.3,0.1c-0.1,0.1-0.3,0.1-0.4,0.1H57l-2.8-0.1c-0.1,0-0.3,0-0.4-0.1c-0.8-0.3-1.8,0.1-2.1,1l-3.4,8.7
		c-0.3,0.3-0.7,0.5-1.1,0.5c-0.3,0-0.5-0.1-0.7-0.2l-2.5-1.4c-0.5-0.3-1-0.8-1.2-1.4l-0.5-1.3l-0.9,5c0,0,0,0.1,0,0.1l-3,8.7
		c-0.1,0.4,0.2,0.8,0.6,0.7c0.6-0.1,1.3-0.1,2,0.3c0.5,0.3,0.8,0.6,1.1,0.9c0.3,0.3,0.8,0.2,0.9-0.1l4.5-9.6
		c-0.1,0.3-0.1,0.5-0.1,0.8l1.5,12.4c0.1,0.4,0.4,0.7,0.9,0.7h14.4c0.4,0,0.8-0.3,0.9-0.7l1.5-12.3c0.1-0.3,0-0.6-0.1-0.9l0,0
		l4.6,9.7C71.2,46.5,71.7,46.5,71.9,46.2z"/>
	<path class="st0" d="M76.2,48c0.1-0.6-0.3-1.1-0.9-1.2l-2-0.3c-0.4-0.1-0.8,0.1-1.1,0.5L71.6,48c-0.3,0.4-0.4,0.9-0.2,1.4l0.4,1.5
		c0,0.2,0.2,0.3,0.4,0.2l0.5-0.2c0.1,0,0.2-0.2,0.2-0.3l-0.2-1.6c0-0.1,0.1-0.2,0.2-0.3h0c0.2-0.1,0.4,0,0.4,0.2l0.8,2.9
		c0,0.1,0,0.2,0,0.2l-1.3,1.9c-0.2,0.3-0.1,0.7,0.2,0.9L73,55c0.3,0.2,0.7,0.1,0.9-0.2l1.8-2.7c0,0,0,0,0,0l0.6-1.2
		c0.1-0.3,0.2-0.6,0.1-0.9L76.2,48z"/>
	<path class="st0" d="M43.7,31.4c0.1,0.4,0.4,0.7,0.8,0.9l2.5,1.4c0.3,0.2,0.6,0,0.8-0.3l2.6-6.6c0.1-0.3,0-0.6-0.3-0.7
		c-1.2-0.4-4.2-1.3-5.9,0.2c-0.5,0.5-0.9,0.9-1.2,1.4c-0.3,0.5-0.3,1.1-0.1,1.6L43.7,31.4z"/>
	<path class="st0" d="M41.7,46.9c-0.2-0.4-0.7-0.5-1.1-0.5l-2,0.3c-0.6,0.1-1,0.6-0.9,1.2L37.5,50c0,0.3,0,0.6,0.1,0.9l0.6,1.2
		c0,0,0,0,0,0l1.8,2.7c0.2,0.3,0.6,0.4,0.9,0.2l0.2-0.1c0.3-0.2,0.4-0.6,0.2-0.9L40,52c0-0.1-0.1-0.2,0-0.2l0.8-2.9
		c0-0.2,0.2-0.3,0.4-0.2c0.1,0.1,0.2,0.2,0.2,0.3l-0.2,1.6c0,0.1,0.1,0.3,0.2,0.3l0.5,0.2c0.2,0.1,0.3,0,0.4-0.2l0.4-1.5
		c0.1-0.5,0-1-0.2-1.4L41.7,46.9z"/>
	<path class="st0" d="M66.2,51.9h-0.9c0.1,0.3,0.2,0.5,0.2,0.8c0,0.6-0.5,1.4-2.8,1.5c-0.1,0-0.2,0-0.3,0c-1.1,0-3-0.2-3-1.4
		c0-0.3,0-0.6,0.2-0.9h-0.9c-0.4,0-0.9,0.2-1.1,0.5c-0.2,0.2-0.3,0.6-0.3,0.9l1,12.8c0,0.1,0,0.2,0,0.3L58,74.7l-0.1,2.3
		c0,0.5,0.2,1,0.7,1.2l1.3,0.8c0.3,0.2,0.7,0.3,1.1,0.3h3.3c0.5,0,1-0.2,1.3-0.5l0.8-0.8c0.3-0.3,0.5-0.8,0.4-1.3l-0.5-2.1l1.9-7.8
		c0.1-0.3,0.1-0.5,0.1-0.8c0,0,0-0.1,0-0.1c0,0,0,0,0,0c0-0.1,0-0.2,0-0.4l-0.4-12.5C67.7,52.5,67,51.9,66.2,51.9z M64.7,74.7
		c0,0.8-0.7,1.5-1.5,1.5h-1.8c-0.8,0-1.5-0.7-1.5-1.5v-0.1c0-0.8,0.7-1.5,1.5-1.5h1.8c0.8,0,1.5,0.7,1.5,1.5V74.7z"/>
	<path class="st0" d="M56.8,53.3c0-0.3-0.1-0.6-0.3-0.9c-0.3-0.3-0.7-0.5-1.1-0.5h-0.9c0.1,0.3,0.2,0.6,0.2,0.9
		c-0.1,1.2-1.9,1.4-3,1.4c-0.1,0-0.2,0-0.3,0c-2.3-0.1-2.8-0.8-2.8-1.5c0-0.3,0.1-0.6,0.2-0.8h-0.9c-0.8,0-1.4,0.5-1.5,1.2
		l-0.4,12.5c0,0.1,0,0.2,0,0.4c0,0,0,0,0,0c0,0,0,0.1,0,0.1c0,0.3,0.1,0.5,0.1,0.8l1.9,7.8l-0.5,2.1c-0.1,0.5,0,0.9,0.4,1.3l0.8,0.8
		c0.3,0.3,0.8,0.5,1.3,0.5h3.3c0.4,0,0.8-0.1,1.1-0.3l1.3-0.8c0.4-0.3,0.7-0.8,0.7-1.2L56,74.7l-0.3-8.3c0-0.1,0-0.2,0-0.3
		L56.8,53.3z M54.1,74.7c0,0.8-0.7,1.5-1.5,1.5h-1.8c-0.8,0-1.5-0.7-1.5-1.5v-0.1c0-0.8,0.7-1.5,1.5-1.5h1.8c0.8,0,1.5,0.7,1.5,1.5
		V74.7z"/>
</g>
</svg>
